<mxfile host="65bd71144e">
    <diagram id="sindNN_TvFN9ALz8qYsZ" name="Page-1">
        <mxGraphModel dx="1631" dy="2013" grid="1" gridSize="10" guides="1" tooltips="1" connect="1" arrows="1" fold="1" page="1" pageScale="1" pageWidth="850" pageHeight="1100" math="0" shadow="0">
            <root>
                <mxCell id="0"/>
                <mxCell id="1" parent="0"/>
                <mxCell id="245" value="Teacher" style="rounded=0;whiteSpace=wrap;html=1;fontSize=14;" parent="1" vertex="1">
                    <mxGeometry x="1370" y="130" width="120" height="40" as="geometry"/>
                </mxCell>
                <mxCell id="246" value="&lt;u&gt;Teaching ID&lt;/u&gt;" style="ellipse;whiteSpace=wrap;html=1;fontSize=14;" parent="1" vertex="1">
                    <mxGeometry x="1210" y="220" width="80" height="50" as="geometry"/>
                </mxCell>
                <mxCell id="247" value="" style="endArrow=none;html=1;fontSize=14;exitX=1;exitY=0.5;exitDx=0;exitDy=0;entryX=0;entryY=0.5;entryDx=0;entryDy=0;" parent="1" source="246" target="245" edge="1">
                    <mxGeometry width="50" height="50" relative="1" as="geometry">
                        <mxPoint x="1280" y="180" as="sourcePoint"/>
                        <mxPoint x="1330" y="130" as="targetPoint"/>
                    </mxGeometry>
                </mxCell>
                <mxCell id="248" value="grade level" style="ellipse;shape=doubleEllipse;whiteSpace=wrap;html=1;fontSize=14;" parent="1" vertex="1">
                    <mxGeometry x="1505" y="240" width="105" height="37.5" as="geometry"/>
                </mxCell>
                <mxCell id="249" value="" style="endArrow=none;html=1;fontSize=14;exitX=0.5;exitY=0;exitDx=0;exitDy=0;entryX=1;entryY=0.5;entryDx=0;entryDy=0;" parent="1" source="248" target="245" edge="1">
                    <mxGeometry width="50" height="50" relative="1" as="geometry">
                        <mxPoint x="1280" y="180" as="sourcePoint"/>
                        <mxPoint x="1330" y="130" as="targetPoint"/>
                        <Array as="points"/>
                    </mxGeometry>
                </mxCell>
                <mxCell id="250" value="" style="endArrow=none;html=1;fontSize=14;exitX=0.25;exitY=0;exitDx=0;exitDy=0;entryX=0.5;entryY=1;entryDx=0;entryDy=0;" parent="1" source="245" target="251" edge="1">
                    <mxGeometry width="50" height="50" relative="1" as="geometry">
                        <mxPoint x="1280" y="180" as="sourcePoint"/>
                        <mxPoint x="970" y="140" as="targetPoint"/>
                    </mxGeometry>
                </mxCell>
                <mxCell id="251" value="Name" style="ellipse;whiteSpace=wrap;html=1;fontSize=14;" parent="1" vertex="1">
                    <mxGeometry x="1360" y="50" width="90" height="30" as="geometry"/>
                </mxCell>
                <mxCell id="252" value="Last" style="ellipse;whiteSpace=wrap;html=1;fontSize=14;" parent="1" vertex="1">
                    <mxGeometry x="1230" y="20" width="80" height="30" as="geometry"/>
                </mxCell>
                <mxCell id="253" value="First" style="ellipse;whiteSpace=wrap;html=1;fontSize=14;" parent="1" vertex="1">
                    <mxGeometry x="1220" y="90" width="80" height="40" as="geometry"/>
                </mxCell>
                <mxCell id="254" value="" style="endArrow=none;html=1;fontSize=14;exitX=0;exitY=0;exitDx=0;exitDy=0;entryX=1;entryY=0.5;entryDx=0;entryDy=0;" parent="1" source="251" target="252" edge="1">
                    <mxGeometry width="50" height="50" relative="1" as="geometry">
                        <mxPoint x="1280" y="180" as="sourcePoint"/>
                        <mxPoint x="1330" y="130" as="targetPoint"/>
                    </mxGeometry>
                </mxCell>
                <mxCell id="255" value="Prefix" style="ellipse;whiteSpace=wrap;html=1;fontSize=14;" parent="1" vertex="1">
                    <mxGeometry x="1500" y="40" width="90" height="40" as="geometry"/>
                </mxCell>
                <mxCell id="256" value="" style="endArrow=none;html=1;fontSize=14;exitX=0.75;exitY=0;exitDx=0;exitDy=0;entryX=0.5;entryY=1;entryDx=0;entryDy=0;" parent="1" source="245" target="255" edge="1">
                    <mxGeometry width="50" height="50" relative="1" as="geometry">
                        <mxPoint x="1050" y="280" as="sourcePoint"/>
                        <mxPoint x="1100" y="230" as="targetPoint"/>
                    </mxGeometry>
                </mxCell>
                <mxCell id="257" value="Manages" style="rhombus;whiteSpace=wrap;html=1;fontSize=14;" parent="1" vertex="1">
                    <mxGeometry x="1390" y="380" width="80" height="80" as="geometry"/>
                </mxCell>
                <mxCell id="260" value="" style="endArrow=none;html=1;fontSize=11;exitX=0.5;exitY=0;exitDx=0;exitDy=0;entryX=0.5;entryY=1;entryDx=0;entryDy=0;" parent="1" source="253" target="251" edge="1">
                    <mxGeometry width="50" height="50" relative="1" as="geometry">
                        <mxPoint x="1150" y="330" as="sourcePoint"/>
                        <mxPoint x="1200" y="280" as="targetPoint"/>
                    </mxGeometry>
                </mxCell>
                <mxCell id="268" value="&lt;font style=&quot;font-size: 14px&quot;&gt;Student&lt;/font&gt;" style="rounded=0;whiteSpace=wrap;html=1;" parent="1" vertex="1">
                    <mxGeometry x="860" y="135" width="100" height="40" as="geometry"/>
                </mxCell>
                <mxCell id="269" value="&lt;u&gt;Student ID&lt;/u&gt;" style="ellipse;whiteSpace=wrap;html=1;fontSize=14;" parent="1" vertex="1">
                    <mxGeometry x="780" y="60" width="80" height="30" as="geometry"/>
                </mxCell>
                <mxCell id="270" value="" style="endArrow=none;html=1;fontSize=14;exitX=0.5;exitY=1;exitDx=0;exitDy=0;entryX=0;entryY=0;entryDx=0;entryDy=0;" parent="1" source="269" target="268" edge="1">
                    <mxGeometry width="50" height="50" relative="1" as="geometry">
                        <mxPoint x="970" y="300" as="sourcePoint"/>
                        <mxPoint x="1020" y="250" as="targetPoint"/>
                    </mxGeometry>
                </mxCell>
                <mxCell id="271" value="Name" style="ellipse;whiteSpace=wrap;html=1;fontSize=14;" parent="1" vertex="1">
                    <mxGeometry x="875" y="70" width="70" height="30" as="geometry"/>
                </mxCell>
                <mxCell id="272" value="" style="endArrow=none;html=1;fontSize=14;entryX=0.5;entryY=1;entryDx=0;entryDy=0;exitX=0.5;exitY=0;exitDx=0;exitDy=0;" parent="1" source="268" target="271" edge="1">
                    <mxGeometry width="50" height="50" relative="1" as="geometry">
                        <mxPoint x="970" y="300" as="sourcePoint"/>
                        <mxPoint x="1020" y="250" as="targetPoint"/>
                    </mxGeometry>
                </mxCell>
                <mxCell id="273" value="" style="endArrow=none;html=1;fontSize=14;entryX=0.376;entryY=0.033;entryDx=0;entryDy=0;entryPerimeter=0;exitX=0.5;exitY=1;exitDx=0;exitDy=0;" parent="1" source="274" target="271" edge="1">
                    <mxGeometry width="50" height="50" relative="1" as="geometry">
                        <mxPoint x="960" y="170" as="sourcePoint"/>
                        <mxPoint x="1020" y="250" as="targetPoint"/>
                    </mxGeometry>
                </mxCell>
                <mxCell id="274" value="First" style="ellipse;whiteSpace=wrap;html=1;fontSize=14;" parent="1" vertex="1">
                    <mxGeometry x="850" y="10" width="60" height="30" as="geometry"/>
                </mxCell>
                <mxCell id="275" value="Last" style="ellipse;whiteSpace=wrap;html=1;fontSize=14;" parent="1" vertex="1">
                    <mxGeometry x="935" y="20" width="60" height="30" as="geometry"/>
                </mxCell>
                <mxCell id="276" value="" style="endArrow=none;html=1;fontSize=14;entryX=0.5;entryY=1;entryDx=0;entryDy=0;exitX=1;exitY=0;exitDx=0;exitDy=0;" parent="1" source="271" target="275" edge="1">
                    <mxGeometry width="50" height="50" relative="1" as="geometry">
                        <mxPoint x="970" y="300" as="sourcePoint"/>
                        <mxPoint x="1020" y="250" as="targetPoint"/>
                    </mxGeometry>
                </mxCell>
                <mxCell id="277" value="Date Of Birth" style="ellipse;whiteSpace=wrap;html=1;fontSize=14;" parent="1" vertex="1">
                    <mxGeometry x="725" y="95" width="90" height="40" as="geometry"/>
                </mxCell>
                <mxCell id="278" value="" style="endArrow=none;html=1;fontSize=14;exitX=1;exitY=0.5;exitDx=0;exitDy=0;entryX=0;entryY=0.5;entryDx=0;entryDy=0;" parent="1" source="277" target="268" edge="1">
                    <mxGeometry width="50" height="50" relative="1" as="geometry">
                        <mxPoint x="970" y="300" as="sourcePoint"/>
                        <mxPoint x="1020" y="250" as="targetPoint"/>
                    </mxGeometry>
                </mxCell>
                <mxCell id="279" value="" style="endArrow=none;html=1;fontSize=14;exitX=0;exitY=0;exitDx=0;exitDy=0;entryX=0.5;entryY=1;entryDx=0;entryDy=0;" parent="1" source="277" target="280" edge="1">
                    <mxGeometry width="50" height="50" relative="1" as="geometry">
                        <mxPoint x="970" y="300" as="sourcePoint"/>
                        <mxPoint x="800" y="250" as="targetPoint"/>
                    </mxGeometry>
                </mxCell>
                <mxCell id="280" value="Month" style="ellipse;whiteSpace=wrap;html=1;fontSize=14;rotation=15;" parent="1" vertex="1">
                    <mxGeometry x="700" width="60" height="30" as="geometry"/>
                </mxCell>
                <mxCell id="281" value="Date" style="ellipse;whiteSpace=wrap;html=1;fontSize=14;rotation=-45;" parent="1" vertex="1">
                    <mxGeometry x="640" y="60" width="60" height="30" as="geometry"/>
                </mxCell>
                <mxCell id="282" value="" style="endArrow=none;html=1;fontSize=14;entryX=0;entryY=0.5;entryDx=0;entryDy=0;exitX=0.5;exitY=1;exitDx=0;exitDy=0;" parent="1" source="281" target="277" edge="1">
                    <mxGeometry width="50" height="50" relative="1" as="geometry">
                        <mxPoint x="700" y="50" as="sourcePoint"/>
                        <mxPoint x="1020" y="250" as="targetPoint"/>
                    </mxGeometry>
                </mxCell>
                <mxCell id="283" value="Year" style="ellipse;whiteSpace=wrap;html=1;fontSize=14;rotation=-45;" parent="1" vertex="1">
                    <mxGeometry x="590" y="100" width="50" height="30" as="geometry"/>
                </mxCell>
                <mxCell id="284" value="" style="endArrow=none;html=1;fontSize=14;exitX=0.5;exitY=1;exitDx=0;exitDy=0;entryX=0;entryY=1;entryDx=0;entryDy=0;" parent="1" source="283" target="277" edge="1">
                    <mxGeometry width="50" height="50" relative="1" as="geometry">
                        <mxPoint x="970" y="300" as="sourcePoint"/>
                        <mxPoint x="1020" y="250" as="targetPoint"/>
                    </mxGeometry>
                </mxCell>
                <mxCell id="285" value="Guardian/Parents" style="rounded=0;whiteSpace=wrap;html=1;fontSize=14;" parent="1" vertex="1">
                    <mxGeometry x="790" y="510" width="120" height="40" as="geometry"/>
                </mxCell>
                <mxCell id="286" value="Address" style="ellipse;whiteSpace=wrap;html=1;fontSize=14;" parent="1" vertex="1">
                    <mxGeometry x="870" y="652.5" width="75" height="45" as="geometry"/>
                </mxCell>
                <mxCell id="287" value="" style="endArrow=none;html=1;fontSize=14;exitX=0.75;exitY=1;exitDx=0;exitDy=0;entryX=0.5;entryY=0;entryDx=0;entryDy=0;" parent="1" source="285" target="286" edge="1">
                    <mxGeometry width="50" height="50" relative="1" as="geometry">
                        <mxPoint x="1100" y="430" as="sourcePoint"/>
                        <mxPoint x="1150" y="380" as="targetPoint"/>
                    </mxGeometry>
                </mxCell>
                <mxCell id="288" value="Email" style="ellipse;whiteSpace=wrap;html=1;fontSize=14;" parent="1" vertex="1">
                    <mxGeometry x="627.5" y="610" width="65" height="42.5" as="geometry"/>
                </mxCell>
                <mxCell id="289" value="" style="endArrow=none;html=1;fontSize=14;entryX=0;entryY=0.5;entryDx=0;entryDy=0;exitX=0.5;exitY=0;exitDx=0;exitDy=0;" parent="1" source="288" target="285" edge="1">
                    <mxGeometry width="50" height="50" relative="1" as="geometry">
                        <mxPoint x="770" y="510" as="sourcePoint"/>
                        <mxPoint x="1150" y="380" as="targetPoint"/>
                    </mxGeometry>
                </mxCell>
                <mxCell id="290" value="Phone no" style="ellipse;whiteSpace=wrap;html=1;fontSize=14;" parent="1" vertex="1">
                    <mxGeometry x="730" y="660" width="90" height="40" as="geometry"/>
                </mxCell>
                <mxCell id="291" value="" style="endArrow=none;html=1;fontSize=14;exitX=0.5;exitY=0;exitDx=0;exitDy=0;entryX=0.5;entryY=1;entryDx=0;entryDy=0;" parent="1" source="290" target="285" edge="1">
                    <mxGeometry width="50" height="50" relative="1" as="geometry">
                        <mxPoint x="1100" y="430" as="sourcePoint"/>
                        <mxPoint x="1150" y="380" as="targetPoint"/>
                    </mxGeometry>
                </mxCell>
                <mxCell id="292" value="" style="endArrow=none;html=1;fontSize=14;entryX=1;entryY=0.5;entryDx=0;entryDy=0;exitX=0;exitY=0.25;exitDx=0;exitDy=0;" parent="1" source="285" target="293" edge="1">
                    <mxGeometry width="50" height="50" relative="1" as="geometry">
                        <mxPoint x="940" y="410" as="sourcePoint"/>
                        <mxPoint x="790" y="390" as="targetPoint"/>
                    </mxGeometry>
                </mxCell>
                <mxCell id="293" value="Name" style="ellipse;whiteSpace=wrap;html=1;fontSize=14;" parent="1" vertex="1">
                    <mxGeometry x="530" y="547.5" width="90" height="30" as="geometry"/>
                </mxCell>
                <mxCell id="294" value="Last" style="ellipse;whiteSpace=wrap;html=1;fontSize=14;" parent="1" vertex="1">
                    <mxGeometry x="370" y="530" width="80" height="40" as="geometry"/>
                </mxCell>
                <mxCell id="295" value="First" style="ellipse;whiteSpace=wrap;html=1;fontSize=14;" parent="1" vertex="1">
                    <mxGeometry x="380" y="610" width="75" height="50" as="geometry"/>
                </mxCell>
                <mxCell id="296" value="" style="endArrow=none;html=1;fontSize=14;exitX=0;exitY=0.5;exitDx=0;exitDy=0;entryX=1;entryY=0.5;entryDx=0;entryDy=0;" parent="1" source="293" target="294" edge="1">
                    <mxGeometry width="50" height="50" relative="1" as="geometry">
                        <mxPoint x="1100" y="430" as="sourcePoint"/>
                        <mxPoint x="1150" y="380" as="targetPoint"/>
                    </mxGeometry>
                </mxCell>
                <mxCell id="297" value="" style="endArrow=none;html=1;fontSize=14;exitX=1;exitY=0.5;exitDx=0;exitDy=0;entryX=0;entryY=1;entryDx=0;entryDy=0;" parent="1" source="295" target="293" edge="1">
                    <mxGeometry width="50" height="50" relative="1" as="geometry">
                        <mxPoint x="1100" y="430" as="sourcePoint"/>
                        <mxPoint x="760" y="420" as="targetPoint"/>
                    </mxGeometry>
                </mxCell>
                <mxCell id="298" value="&lt;span style=&quot;font-size: 11px&quot;&gt;TAKING_PERMISSION&lt;/span&gt;" style="rhombus;whiteSpace=wrap;html=1;fontSize=14;" parent="1" vertex="1">
                    <mxGeometry x="815" y="320" width="140" height="100" as="geometry"/>
                </mxCell>
                <mxCell id="304" value="LEARN_FROM" style="rhombus;whiteSpace=wrap;html=1;fontSize=11;" parent="1" vertex="1">
                    <mxGeometry x="1100" y="110" width="90" height="80" as="geometry"/>
                </mxCell>
                <mxCell id="305" value="" style="shape=link;html=1;" parent="1" source="304" target="245" edge="1">
                    <mxGeometry width="50" height="50" relative="1" as="geometry">
                        <mxPoint x="740" y="340" as="sourcePoint"/>
                        <mxPoint x="790" y="290" as="targetPoint"/>
                    </mxGeometry>
                </mxCell>
                <mxCell id="313" value="Allergies" style="shape=ext;margin=3;double=1;whiteSpace=wrap;html=1;align=center;" parent="1" vertex="1">
                    <mxGeometry x="270" y="160" width="110" height="40" as="geometry"/>
                </mxCell>
                <mxCell id="316" value="Treatment Protocols" style="ellipse;whiteSpace=wrap;html=1;fontSize=14;" parent="1" vertex="1">
                    <mxGeometry x="130" y="65" width="100" height="50" as="geometry"/>
                </mxCell>
                <mxCell id="317" value="" style="endArrow=none;html=1;fontSize=14;exitX=1;exitY=1;exitDx=0;exitDy=0;entryX=0;entryY=0.25;entryDx=0;entryDy=0;" parent="1" source="316" target="313" edge="1">
                    <mxGeometry width="50" height="50" relative="1" as="geometry">
                        <mxPoint x="-240" y="160" as="sourcePoint"/>
                        <mxPoint x="250" y="140" as="targetPoint"/>
                    </mxGeometry>
                </mxCell>
                <mxCell id="318" value="SENSITIVE_TO" style="shape=rhombus;double=1;perimeter=rhombusPerimeter;whiteSpace=wrap;html=1;align=center;" parent="1" vertex="1">
                    <mxGeometry x="455" y="110" width="125" height="100" as="geometry"/>
                </mxCell>
                <mxCell id="321" value="Emergency Contact" style="shape=ext;margin=3;double=1;whiteSpace=wrap;html=1;align=center;" parent="1" vertex="1">
                    <mxGeometry x="400" y="295" width="120" height="40" as="geometry"/>
                </mxCell>
                <mxCell id="322" value="Phone no" style="ellipse;whiteSpace=wrap;html=1;fontSize=14;" parent="1" vertex="1">
                    <mxGeometry x="415" y="440" width="90" height="40" as="geometry"/>
                </mxCell>
                <mxCell id="323" value="" style="endArrow=none;html=1;fontSize=14;exitX=0.5;exitY=0;exitDx=0;exitDy=0;entryX=0.5;entryY=1;entryDx=0;entryDy=0;" parent="1" source="322" target="321" edge="1">
                    <mxGeometry width="50" height="50" relative="1" as="geometry">
                        <mxPoint x="345" y="460" as="sourcePoint"/>
                        <mxPoint x="440" y="280" as="targetPoint"/>
                    </mxGeometry>
                </mxCell>
                <mxCell id="324" value="" style="endArrow=none;html=1;fontSize=14;exitX=0;exitY=0.25;exitDx=0;exitDy=0;entryX=1;entryY=0.5;entryDx=0;entryDy=0;" parent="1" source="321" target="325" edge="1">
                    <mxGeometry width="50" height="50" relative="1" as="geometry">
                        <mxPoint x="345" y="460" as="sourcePoint"/>
                        <mxPoint x="310" y="350" as="targetPoint"/>
                    </mxGeometry>
                </mxCell>
                <mxCell id="325" value="Name" style="ellipse;whiteSpace=wrap;html=1;fontSize=14;" parent="1" vertex="1">
                    <mxGeometry x="280" y="290" width="90" height="30" as="geometry"/>
                </mxCell>
                <mxCell id="326" value="Last" style="ellipse;whiteSpace=wrap;html=1;fontSize=14;" parent="1" vertex="1">
                    <mxGeometry x="160" y="295" width="80" height="40" as="geometry"/>
                </mxCell>
                <mxCell id="327" value="First" style="ellipse;whiteSpace=wrap;html=1;fontSize=14;" parent="1" vertex="1">
                    <mxGeometry x="200" y="410" width="80" height="40" as="geometry"/>
                </mxCell>
                <mxCell id="328" value="" style="endArrow=none;html=1;fontSize=14;exitX=0;exitY=0.5;exitDx=0;exitDy=0;entryX=1;entryY=0.5;entryDx=0;entryDy=0;" parent="1" source="325" target="326" edge="1">
                    <mxGeometry width="50" height="50" relative="1" as="geometry">
                        <mxPoint x="345" y="460" as="sourcePoint"/>
                        <mxPoint x="395" y="410" as="targetPoint"/>
                    </mxGeometry>
                </mxCell>
                <mxCell id="329" value="" style="endArrow=none;html=1;fontSize=14;entryX=0;entryY=1;entryDx=0;entryDy=0;exitX=0.5;exitY=0;exitDx=0;exitDy=0;" parent="1" source="327" target="325" edge="1">
                    <mxGeometry width="50" height="50" relative="1" as="geometry">
                        <mxPoint x="230" y="380" as="sourcePoint"/>
                        <mxPoint x="395" y="410" as="targetPoint"/>
                    </mxGeometry>
                </mxCell>
                <mxCell id="339" value="Has" style="shape=rhombus;double=1;perimeter=rhombusPerimeter;whiteSpace=wrap;html=1;align=center;" parent="1" vertex="1">
                    <mxGeometry x="620" y="255" width="80" height="80" as="geometry"/>
                </mxCell>
                <mxCell id="345" value="" style="endArrow=none;html=1;fontSize=14;exitX=0.5;exitY=0;exitDx=0;exitDy=0;entryX=0;entryY=1;entryDx=0;entryDy=0;" parent="1" source="346" target="408" edge="1">
                    <mxGeometry width="50" height="50" relative="1" as="geometry">
                        <mxPoint x="1250" y="810" as="sourcePoint"/>
                        <mxPoint x="1060" y="420" as="targetPoint"/>
                    </mxGeometry>
                </mxCell>
                <mxCell id="346" value="Kindargarten" style="rounded=0;whiteSpace=wrap;html=1;fontSize=18;" parent="1" vertex="1">
                    <mxGeometry x="992.5" y="530" width="105" height="40" as="geometry"/>
                </mxCell>
                <mxCell id="347" value="Elementary" style="rounded=0;whiteSpace=wrap;html=1;fontSize=18;" parent="1" vertex="1">
                    <mxGeometry x="1120" y="530" width="120" height="40" as="geometry"/>
                </mxCell>
                <mxCell id="349" value="AM/PM class" style="ellipse;whiteSpace=wrap;html=1;fontSize=14;" parent="1" vertex="1">
                    <mxGeometry x="990" y="620" width="90" height="40" as="geometry"/>
                </mxCell>
                <mxCell id="350" value="" style="endArrow=none;html=1;fontSize=14;exitX=0.5;exitY=0;exitDx=0;exitDy=0;entryX=0.5;entryY=1;entryDx=0;entryDy=0;" parent="1" source="349" target="346" edge="1">
                    <mxGeometry width="50" height="50" relative="1" as="geometry">
                        <mxPoint x="1145" y="880" as="sourcePoint"/>
                        <mxPoint x="1195" y="830" as="targetPoint"/>
                    </mxGeometry>
                </mxCell>
                <mxCell id="351" value="Division" style="ellipse;whiteSpace=wrap;html=1;fontSize=14;" parent="1" vertex="1">
                    <mxGeometry x="1190" y="630" width="70" height="40" as="geometry"/>
                </mxCell>
                <mxCell id="352" value="" style="endArrow=none;html=1;fontSize=14;entryX=0.5;entryY=1;entryDx=0;entryDy=0;exitX=0.5;exitY=0;exitDx=0;exitDy=0;" parent="1" source="351" target="347" edge="1">
                    <mxGeometry width="50" height="50" relative="1" as="geometry">
                        <mxPoint x="1140" y="850" as="sourcePoint"/>
                        <mxPoint x="1190" y="800" as="targetPoint"/>
                    </mxGeometry>
                </mxCell>
                <mxCell id="367" value="" style="shape=link;html=1;rounded=0;exitX=0.5;exitY=1;exitDx=0;exitDy=0;entryX=0.5;entryY=0;entryDx=0;entryDy=0;" parent="1" source="268" target="298" edge="1">
                    <mxGeometry relative="1" as="geometry">
                        <mxPoint x="730" y="450" as="sourcePoint"/>
                        <mxPoint x="890" y="450" as="targetPoint"/>
                    </mxGeometry>
                </mxCell>
                <mxCell id="368" value="1" style="resizable=0;html=1;align=right;verticalAlign=bottom;fontSize=20;" parent="367" connectable="0" vertex="1">
                    <mxGeometry x="1" relative="1" as="geometry">
                        <mxPoint x="-5" y="-11" as="offset"/>
                    </mxGeometry>
                </mxCell>
                <mxCell id="369" value="" style="shape=link;html=1;rounded=0;fontSize=20;entryX=0.5;entryY=1;entryDx=0;entryDy=0;exitX=0.5;exitY=0;exitDx=0;exitDy=0;" parent="1" source="285" target="298" edge="1">
                    <mxGeometry relative="1" as="geometry">
                        <mxPoint x="730" y="450" as="sourcePoint"/>
                        <mxPoint x="890" y="450" as="targetPoint"/>
                    </mxGeometry>
                </mxCell>
                <mxCell id="370" value="1" style="resizable=0;html=1;align=right;verticalAlign=bottom;fontSize=20;" parent="369" connectable="0" vertex="1">
                    <mxGeometry x="1" relative="1" as="geometry">
                        <mxPoint x="-10" y="19" as="offset"/>
                    </mxGeometry>
                </mxCell>
                <mxCell id="371" value="" style="shape=link;html=1;rounded=0;fontSize=20;entryX=1;entryY=0.5;entryDx=0;entryDy=0;exitX=0;exitY=1;exitDx=0;exitDy=0;" parent="1" source="268" target="339" edge="1">
                    <mxGeometry relative="1" as="geometry">
                        <mxPoint x="680" y="210" as="sourcePoint"/>
                        <mxPoint x="840" y="210" as="targetPoint"/>
                    </mxGeometry>
                </mxCell>
                <mxCell id="372" value="1" style="resizable=0;html=1;align=right;verticalAlign=bottom;fontSize=20;" parent="371" connectable="0" vertex="1">
                    <mxGeometry x="1" relative="1" as="geometry">
                        <mxPoint x="10" y="-5" as="offset"/>
                    </mxGeometry>
                </mxCell>
                <mxCell id="373" value="" style="shape=link;html=1;rounded=0;fontSize=20;exitX=1;exitY=0.75;exitDx=0;exitDy=0;entryX=0;entryY=0.5;entryDx=0;entryDy=0;" parent="1" source="321" target="339" edge="1">
                    <mxGeometry relative="1" as="geometry">
                        <mxPoint x="730" y="330" as="sourcePoint"/>
                        <mxPoint x="620" y="290" as="targetPoint"/>
                    </mxGeometry>
                </mxCell>
                <mxCell id="374" value="1" style="resizable=0;html=1;align=right;verticalAlign=bottom;fontSize=20;" parent="373" connectable="0" vertex="1">
                    <mxGeometry x="1" relative="1" as="geometry"/>
                </mxCell>
                <mxCell id="377" value="" style="endArrow=none;html=1;rounded=0;fontSize=20;entryX=1;entryY=0.5;entryDx=0;entryDy=0;exitX=0;exitY=0.75;exitDx=0;exitDy=0;" parent="1" source="268" target="318" edge="1">
                    <mxGeometry relative="1" as="geometry">
                        <mxPoint x="730" y="210" as="sourcePoint"/>
                        <mxPoint x="890" y="210" as="targetPoint"/>
                    </mxGeometry>
                </mxCell>
                <mxCell id="378" value="1" style="resizable=0;html=1;align=right;verticalAlign=bottom;fontSize=20;" parent="377" connectable="0" vertex="1">
                    <mxGeometry x="1" relative="1" as="geometry">
                        <mxPoint x="10" y="-5" as="offset"/>
                    </mxGeometry>
                </mxCell>
                <mxCell id="379" value="" style="shape=link;html=1;rounded=0;fontSize=20;exitX=1;exitY=0.5;exitDx=0;exitDy=0;entryX=0;entryY=0.5;entryDx=0;entryDy=0;" parent="1" source="313" target="318" edge="1">
                    <mxGeometry relative="1" as="geometry">
                        <mxPoint x="730" y="210" as="sourcePoint"/>
                        <mxPoint x="890" y="210" as="targetPoint"/>
                    </mxGeometry>
                </mxCell>
                <mxCell id="380" value="N" style="resizable=0;html=1;align=right;verticalAlign=bottom;fontSize=20;" parent="379" connectable="0" vertex="1">
                    <mxGeometry x="1" relative="1" as="geometry"/>
                </mxCell>
                <mxCell id="381" value="" style="endArrow=none;html=1;entryX=0;entryY=0.5;entryDx=0;entryDy=0;" parent="1" source="245" target="257" edge="1">
                    <mxGeometry relative="1" as="geometry">
                        <mxPoint x="770" y="460" as="sourcePoint"/>
                        <mxPoint x="1430" y="360" as="targetPoint"/>
                    </mxGeometry>
                </mxCell>
                <mxCell id="382" value="1" style="resizable=0;html=1;align=right;verticalAlign=bottom;fontSize=20;" parent="381" connectable="0" vertex="1">
                    <mxGeometry x="1" relative="1" as="geometry">
                        <mxPoint x="-10" as="offset"/>
                    </mxGeometry>
                </mxCell>
                <mxCell id="384" value="" style="endArrow=none;html=1;entryX=1;entryY=0.5;entryDx=0;entryDy=0;" parent="1" source="245" target="257" edge="1">
                    <mxGeometry relative="1" as="geometry">
                        <mxPoint x="1500" y="530" as="sourcePoint"/>
                        <mxPoint x="1510" y="530" as="targetPoint"/>
                    </mxGeometry>
                </mxCell>
                <mxCell id="385" value="N" style="resizable=0;html=1;align=right;verticalAlign=bottom;fontSize=20;" parent="384" connectable="0" vertex="1">
                    <mxGeometry x="1" relative="1" as="geometry">
                        <mxPoint x="20" as="offset"/>
                    </mxGeometry>
                </mxCell>
                <mxCell id="386" value="Lead Teacher" style="text;html=1;strokeColor=none;fillColor=none;align=center;verticalAlign=middle;whiteSpace=wrap;rounded=0;fontSize=20;rotation=-90;" parent="1" vertex="1">
                    <mxGeometry x="1330" y="325" width="80" height="30" as="geometry"/>
                </mxCell>
                <mxCell id="387" value="Teachers" style="text;html=1;strokeColor=none;fillColor=none;align=center;verticalAlign=middle;whiteSpace=wrap;rounded=0;fontSize=20;rotation=90;" parent="1" vertex="1">
                    <mxGeometry x="1446.46" y="240.00000000000006" width="43.54" height="110" as="geometry"/>
                </mxCell>
                <mxCell id="391" value="" style="shape=link;html=1;rounded=0;fontSize=20;entryX=0;entryY=0.5;entryDx=0;entryDy=0;exitX=1;exitY=0.5;exitDx=0;exitDy=0;" parent="1" source="268" target="304" edge="1">
                    <mxGeometry relative="1" as="geometry">
                        <mxPoint x="820" y="260" as="sourcePoint"/>
                        <mxPoint x="980" y="260" as="targetPoint"/>
                    </mxGeometry>
                </mxCell>
                <mxCell id="397" value="M" style="text;html=1;strokeColor=none;fillColor=none;align=center;verticalAlign=middle;whiteSpace=wrap;rounded=0;fontSize=20;" parent="1" vertex="1">
                    <mxGeometry x="1060" y="120" width="60" height="30" as="geometry"/>
                </mxCell>
                <mxCell id="398" value="N" style="text;html=1;strokeColor=none;fillColor=none;align=center;verticalAlign=middle;whiteSpace=wrap;rounded=0;fontSize=20;" parent="1" vertex="1">
                    <mxGeometry x="1170" y="120" width="60" height="30" as="geometry"/>
                </mxCell>
                <mxCell id="403" value="&lt;font style=&quot;font-size: 14px&quot;&gt;STUDYING_IN&lt;/font&gt;" style="rhombus;whiteSpace=wrap;html=1;fontSize=20;" parent="1" vertex="1">
                    <mxGeometry x="1040" y="210" width="120" height="80" as="geometry"/>
                </mxCell>
                <mxCell id="404" value="Grade Level" style="rounded=0;whiteSpace=wrap;html=1;fontSize=14;" parent="1" vertex="1">
                    <mxGeometry x="1017.5" y="325" width="125" height="40" as="geometry"/>
                </mxCell>
                <mxCell id="407" value="" style="endArrow=none;html=1;fontSize=14;exitX=0.5;exitY=0;exitDx=0;exitDy=0;" parent="1" source="347" target="408" edge="1">
                    <mxGeometry width="50" height="50" relative="1" as="geometry">
                        <mxPoint x="1040" y="290" as="sourcePoint"/>
                        <mxPoint x="1110" y="420" as="targetPoint"/>
                    </mxGeometry>
                </mxCell>
                <mxCell id="408" value="d" style="ellipse;whiteSpace=wrap;html=1;aspect=fixed;fontSize=14;" parent="1" vertex="1">
                    <mxGeometry x="1060" y="440" width="40" height="40" as="geometry"/>
                </mxCell>
                <mxCell id="410" value="" style="shape=link;html=1;fontSize=14;width=10;entryX=0.5;entryY=1;entryDx=0;entryDy=0;exitX=0.5;exitY=0;exitDx=0;exitDy=0;" parent="1" source="408" target="404" edge="1">
                    <mxGeometry width="100" relative="1" as="geometry">
                        <mxPoint x="920" y="370" as="sourcePoint"/>
                        <mxPoint x="1020" y="370" as="targetPoint"/>
                    </mxGeometry>
                </mxCell>
                <mxCell id="412" value="" style="shape=link;html=1;fontSize=14;entryX=0.5;entryY=1;entryDx=0;entryDy=0;exitX=0.5;exitY=0;exitDx=0;exitDy=0;" parent="1" source="404" target="403" edge="1">
                    <mxGeometry width="100" relative="1" as="geometry">
                        <mxPoint x="1120" y="400" as="sourcePoint"/>
                        <mxPoint x="1220" y="400" as="targetPoint"/>
                    </mxGeometry>
                </mxCell>
                <mxCell id="413" value="" style="shape=link;html=1;fontSize=14;exitX=1;exitY=1;exitDx=0;exitDy=0;entryX=0.5;entryY=0;entryDx=0;entryDy=0;" parent="1" source="268" target="403" edge="1">
                    <mxGeometry width="100" relative="1" as="geometry">
                        <mxPoint x="1120" y="190" as="sourcePoint"/>
                        <mxPoint x="1220" y="190" as="targetPoint"/>
                    </mxGeometry>
                </mxCell>
                <mxCell id="414" value="1" style="text;html=1;strokeColor=none;fillColor=none;align=center;verticalAlign=middle;whiteSpace=wrap;rounded=0;fontSize=14;" parent="1" vertex="1">
                    <mxGeometry x="1050" y="200" width="60" height="30" as="geometry"/>
                </mxCell>
                <mxCell id="416" value="1" style="text;html=1;strokeColor=none;fillColor=none;align=center;verticalAlign=middle;whiteSpace=wrap;rounded=0;fontSize=14;" parent="1" vertex="1">
                    <mxGeometry x="1060" y="285" width="40" height="20" as="geometry"/>
                </mxCell>
                <mxCell id="421" value="" style="endArrow=none;html=1;exitX=0.5;exitY=0;exitDx=0;exitDy=0;entryX=0.5;entryY=1;entryDx=0;entryDy=0;" edge="1" parent="1" source="283" target="424">
                    <mxGeometry width="50" height="50" relative="1" as="geometry">
                        <mxPoint x="800" y="120" as="sourcePoint"/>
                        <mxPoint x="540" y="60" as="targetPoint"/>
                    </mxGeometry>
                </mxCell>
                <mxCell id="422" value="" style="endArrow=none;html=1;entryX=0.5;entryY=0;entryDx=0;entryDy=0;exitX=0.5;exitY=1;exitDx=0;exitDy=0;" edge="1" parent="1" source="424" target="281">
                    <mxGeometry width="50" height="50" relative="1" as="geometry">
                        <mxPoint x="540" y="60" as="sourcePoint"/>
                        <mxPoint x="850" y="70" as="targetPoint"/>
                    </mxGeometry>
                </mxCell>
                <mxCell id="423" value="" style="endArrow=none;html=1;entryX=0;entryY=1;entryDx=0;entryDy=0;exitX=0.5;exitY=1;exitDx=0;exitDy=0;" edge="1" parent="1" source="424" target="280">
                    <mxGeometry width="50" height="50" relative="1" as="geometry">
                        <mxPoint x="540" y="60" as="sourcePoint"/>
                        <mxPoint x="850" y="70" as="targetPoint"/>
                    </mxGeometry>
                </mxCell>
                <mxCell id="424" value="Age" style="ellipse;whiteSpace=wrap;html=1;align=center;dashed=1;rotation=-60;" vertex="1" parent="1">
                    <mxGeometry x="440" y="25" width="100" height="40" as="geometry"/>
                </mxCell>
            </root>
        </mxGraphModel>
    </diagram>
</mxfile>